#!OML:ASF X:\für Bonn\!DataBase\2005_08_12_Daniel\c3d\Daniel.ASF
:FULLY-SPECIFIED
:DEGREES
310
root 14.4453 1.29126 0.747822 -613.199 -86.3217 -212.742
lowerback 32.1494 -4.04455 6.00972
upperback 17.5806 -5.87673 -1.48355
thorax 2.1656 -3.69907 -3.17779
lowerneck 12.9391 8.11911 -4.9156
upperneck 13.5921 9.90423 -4.09774
head 2.21226 4.28003 -0.706136
rclavicle 1.90833e-014 2.94201e-014
rhumerus -24.2034 -6.81122 -87.9336
rradius 17.676
rwrist 38.9386
rhand -20.5808 -345.331
rfingers 7.12502
rthumb 5.77913 -375.232
lclavicle 1.90833e-014 2.94201e-014
lhumerus -383.179 0.107559 -280.237
lradius 36.5375
lwrist -16.2883
lhand -14.995 350.033
lfingers 7.12502
lthumb 11.1696 379.715
rfemur 162.98 -176.179 194.551
rtibia 68.4581
rfoot 31.4367 0.512412
rtoes 8.93624
lfemur -19.2017 -3.05329 -7.69441
ltibia 71.522
lfoot 24.4464 3.85079
ltoes 4.69676
311
root 14.4606 1.28765 0.751355 -616.815 -86.4432 -209.478
lowerback 31.6708 -4.07191 6.01127
upperback 17.5191 -5.90456 -1.43831
thorax 2.27389 -3.6949 -3.1543
lowerneck 12.8056 7.99148 -4.9695
upperneck 13.8105 9.73751 -3.89863
head 2.29137 4.18699 -0.622937
rclavicle 9.54166e-015 -1.92424e-013
rhumerus -24.1144 -7.45931 -87.6764
rradius 17.4074
rwrist 39.3386
rhand -19.5693 -345.378
rfingers 7.12502
rthumb 6.75563 -375.25
lclavicle 9.54166e-015 -1.92424e-013
lhumerus -383.293 0.447135 -280.112
lradius 36.0059
lwrist -17.3389
lhand -14.7057 350.243
lfingers 7.12502
lthumb 11.4486 379.911
rfemur 163.36 -176.105 194.438
rtibia 68.5264
rfoot 31.1046 0.76307
rtoes 8.85349
lfemur -18.9286 -3.25069 -7.71293
ltibia 71.5273
lfoot 24.4325 3.57088
ltoes 4.86709
312
root 14.4778 1.28484 0.754965 -620.598 -86.5485 -206.055
lowerback 31.1871 -4.0854 6.00633
upperback 17.4722 -5.91904 -1.38682
thorax 2.40465 -3.68495 -3.12686
lowerneck 12.6224 7.8437 -5.00798
upperneck 14.0447 9.5518 -3.70964
head 2.38579 4.08463 -0.542957
rclavicle 1.11319e-014 -8.74653e-015
rhumerus -23.9685 -8.16725 -87.4134
rradius 17.1278
rwrist 39.6598
rhand -18.509 -345.564
rfingers 7.12502
rthumb 7.77912 -375.401
lclavicle 1.11319e-014 -8.74653e-015
lhumerus -383.38 0.750378 -279.99
lradius 35.4679
lwrist -18.3732
lhand -14.3688 350.476
lfingers 7.12502
lthumb 11.7735 380.125
rfemur 163.743 -176.018 194.331
rtibia 68.6127
rfoot 30.7323 1.12758
rtoes 8.60381
lfemur -18.6541 -3.42775 -7.73708
ltibia 71.5613
lfoot 24.3622 3.48705
ltoes 5.17857
313
root 14.4941 1.28188 0.759387 -624.885 -86.6251 -202.116
lowerback 30.3641 -4.07381 5.99537
upperback 17.4733 -5.94623 -1.23331
thorax 2.77741 -3.66918 -3.21732
lowerneck 12.4852 7.67953 -4.9965
upperneck 14.2661 9.34612 -3.55744
head 2.47385 3.97507 -0.484166
rclavicle 6.04305e-014 5.40694e-014
rhumerus -23.8976 -8.76501 -87.1709
rradius 16.9348
rwrist 39.8305
rhand -17.4363 -345.9
rfingers 7.12502
rthumb 8.81437 -375.696
lclavicle 6.04305e-014 5.40694e-014
lhumerus -383.556 0.991906 -279.863
lradius 35.0467
lwrist -19.4333
lhand -13.9751 350.779
lfingers 7.12502
lthumb 12.1531 380.406
rfemur 164.107 -175.899 194.237
rtibia 68.722
rfoot 30.3072 1.51265
rtoes 8.19656
lfemur -18.4261 -3.5816 -7.74143
ltibia 71.6388
lfoot 24.2946 3.39715
ltoes 5.4746
314
root 14.5111 1.27989 0.763535 -629.132 -86.6867 -198.233
lowerback 29.8866 -4.08958 6.00479
upperback 17.405 -5.95792 -1.18516
thorax 2.90223 -3.65602 -3.19467
lowerneck 12.3663 7.53936 -5.06454
upperneck 14.4484 9.15476 -3.33331
head 2.53879 3.87299 -0.392016
rclavicle -3.18055e-015 1.35174e-014
rhumerus -23.7902 -9.44134 -86.9016
rradius 16.7124
rwrist 40.1066
rhand -16.3634 -346.268
rfingers 7.12502
rthumb 9.84959 -376.017
lclavicle -3.18055e-015 1.35174e-014
lhumerus -383.689 1.15185 -279.744
lradius 34.6115
lwrist -20.4184
lhand -13.5388 351.052
lfingers 7.12502
lthumb 12.5738 380.654
rfemur 164.471 -175.79 194.149
rtibia 68.856
rfoot 29.8459 1.87333
rtoes 7.74164
lfemur -18.172 -3.70095 -7.74735
ltibia 71.7303
lfoot 24.2064 3.32356
ltoes 5.87651
315
root 14.5305 1.27867 0.768119 -633.689 -86.7367 -194.029
lowerback 29.348 -4.10025 6.02758
upperback 17.3391 -5.96157 -1.13898
thorax 3.05782 -3.63491 -3.189
lowerneck 12.4473 7.38333 -5.11139
upperneck 14.4819 8.92095 -3.13904
head 2.52406 3.75868 -0.321464
rclavicle -1.11319e-014 -1.19271e-013
rhumerus -23.7146 -10.2301 -86.5876
rradius 16.4825
rwrist 40.457
rhand -15.3442 -346.664
rfingers 7.12502
rthumb 10.8327 -376.365
lclavicle -1.11319e-014 -1.19271e-013
lhumerus -383.814 1.09149 -279.6
lradius 34.2227
lwrist -21.2443
lhand -13.0239 351.388
lfingers 7.12502
lthumb 13.0701 380.959
rfemur 164.818 -175.653 194.049
rtibia 69.0168
rfoot 29.3404 2.28412
rtoes 7.14798
lfemur -17.9368 -3.81486 -7.77007
ltibia 71.8403
lfoot 24.1151 3.25881
ltoes 6.20687
316
root 14.5507 1.2781 0.773242 -638.181 -86.7653 -189.901
lowerback 28.7688 -4.0999 6.0482
upperback 17.2948 -5.95718 -1.09848
thorax 3.25954 -3.60877 -3.19584
lowerneck 12.6252 7.21989 -5.12853
upperneck 14.4177 8.6705 -2.97118
head 2.46376 3.64246 -0.268299
rclavicle -1.59028e-015 5.96354e-014
rhumerus -23.6027 -11.0053 -86.2752
rradius 16.1978
rwrist 40.8834
rhand -14.449 -347.07
rfingers 7.12502
rthumb 11.6961 -376.724
lclavicle -1.59028e-015 5.96354e-014
lhumerus -383.93 1.03412 -279.475
lradius 33.8715
lwrist -22.1379
lhand -12.4274 351.709
lfingers 7.12502
lthumb 13.6451 381.242
rfemur 165.169 -175.523 193.945
rtibia 69.2046
rfoot 28.7919 2.5596
rtoes 6.77613
lfemur -17.6865 -3.89928 -7.78921
ltibia 71.9617
lfoot 24.0467 3.17189
ltoes 6.48895
317
root 14.5712 1.27717 0.778598 -642.974 -86.7726 -185.469
lowerback 28.1864 -4.10985 6.04745
upperback 17.2426 -5.97313 -1.03835
thorax 3.45703 -3.59659 -3.16392
lowerneck 12.8532 7.08298 -5.234
upperneck 14.3262 8.43717 -2.78788
head 2.38284 3.53074 -0.198594
rclavicle -2.54444e-014 1.20066e-013
rhumerus -23.4683 -11.6987 -85.9171
rradius 15.8726
rwrist 41.3257
rhand -13.622 -347.389
rfingers 7.12502
rthumb 12.4935 -376.995
lclavicle -2.54444e-014 1.20066e-013
lhumerus -384.058 0.935629 -279.309
lradius 33.5336
lwrist -22.9094
lhand -11.8297 352.004
lfingers 7.12502
lthumb 14.2211 381.498
rfemur 165.499 -175.367 193.838
rtibia 69.4302
rfoot 28.1949 2.84147
rtoes 6.46192
lfemur -17.4542 -3.97052 -7.8031
ltibia 72.0985
lfoot 23.9869 3.10119
ltoes 6.65255
318
root 14.5937 1.27679 0.78381 -647.34 -86.7863 -181.459
lowerback 27.6099 -4.1017 6.05304
upperback 17.1825 -5.95991 -1.02199
thorax 3.64222 -3.56477 -3.1902
lowerneck 13.1539 6.92424 -5.23106
upperneck 14.1563 8.1811 -2.60842
head 2.26939 3.41802 -0.149729
rclavicle -1.59028e-015 2.14687e-014
rhumerus -23.3238 -13.0191 -85.4487
rradius 15.4086
rwrist 42.4572
rhand -12.9175 -347.618
rfingers 7.12502
rthumb 13.1727 -377.182
lclavicle -1.59028e-015 2.14687e-014
lhumerus -384.194 0.769635 -279.213
lradius 33.2073
lwrist -23.7179
lhand -11.1631 352.212
lfingers 7.12502
lthumb 14.8634 381.659
rfemur 165.794 -175.224 193.706
rtibia 69.7019
rfoot 27.5724 3.10308
rtoes 5.97941
lfemur -17.2137 -4.02412 -7.84898
ltibia 72.252
lfoot 23.9091 3.01602
ltoes 6.60586
319
root 14.6198 1.27616 0.789829 -651.81 -86.764 -177.345
lowerback 27.0565 -4.09051 6.05418
upperback 17.1171 -5.94381 -0.972946
thorax 3.81732 -3.53465 -3.17712
lowerneck 13.4569 6.76419 -5.28142
upperneck 13.9683 7.91671 -2.43057
head 2.14902 3.29831 -0.0925293
rclavicle 4.77083e-015 -4.13472e-014
rhumerus -23.1553 -14.5102 -84.8566
rradius 14.8667
rwrist 43.8206
rhand -12.2743 -347.771
rfingers 7.12502
rthumb 13.7926 -377.294
lclavicle 4.77083e-015 -4.13472e-014
lhumerus -384.321 0.621268 -279.066
lradius 32.896
lwrist -24.4417
lhand -10.465 352.466
lfingers 7.12502
lthumb 15.5359 381.862
rfemur 166.081 -175.06 193.587
rtibia 70.0125
rfoot 26.8971 3.33066
rtoes 5.45006
lfemur -16.9874 -4.07218 -7.87074
ltibia 72.4154
lfoot 23.8583 2.89586
ltoes 6.42631
320
root 14.6478 1.27471 0.796395 -656.256 -86.735 -173.257
lowerback 26.558 -4.07711 6.02932
upperback 17.0492 -5.92938 -0.920736
thorax 3.96844 -3.50993 -3.14158
lowerneck 13.6681 6.61492 -5.33759
upperneck 13.813 7.67744 -2.24668
head 2.05474 3.18922 -0.0290857
rclavicle 3.97569e-014 6.04305e-014
rhumerus -22.9793 -16.3843 -84.1308
rradius 14.2499
rwrist 45.6443
rhand -11.7258 -347.835
rfingers 7.12502
rthumb 14.3212 -377.321
lclavicle 3.97569e-014 6.04305e-014
lhumerus -384.45 0.525024 -278.914
lradius 32.6274
lwrist -25.0511
lhand -9.70459 352.716
lfingers 7.12502
lthumb 16.2681 382.054
rfemur 166.323 -174.881 193.438
rtibia 70.3936
rfoot 26.2141 3.53769
rtoes 4.95653
lfemur -16.7605 -4.10811 -7.9028
ltibia 72.5899
lfoot 23.8331 2.81903
ltoes 6.35126
321
root 14.6776 1.27322 0.803252 -660.298 -86.6902 -169.569
lowerback 26.1352 -4.06232 6.01414
upperback 16.9513 -5.90286 -0.875139
thorax 4.05082 -3.47914 -3.11334
lowerneck 13.8335 6.45577 -5.38036
upperneck 13.684 7.43227 -2.05639
head 1.97775 3.07642 0.036699
rclavicle 1.11319e-014 1.11319e-014
rhumerus -22.93 -18.365 -83.3375
rradius 13.6822
rwrist 47.6213
rhand -11.2757 -347.929
rfingers 7.12502
rthumb 14.7549 -377.384
lclavicle 1.11319e-014 1.11319e-014
lhumerus -384.657 0.590394 -278.803
lradius 32.4263
lwrist -25.7346
lhand -8.88939 352.957
lfingers 7.12502
lthumb 17.0529 382.228
rfemur 166.555 -174.718 193.29
rtibia 70.8033
rfoot 25.5251 3.68845
rtoes 4.62528
lfemur -16.5297 -4.13413 -7.92864
ltibia 72.7681
lfoot 23.8187 2.70588
ltoes 6.01582
322
root 14.7085 1.27137 0.810446 -664.208 -86.6188 -166.004
lowerback 25.7746 -4.04827 6.01545
upperback 16.8417 -5.86958 -0.832957
thorax 4.09172 -3.44494 -3.0939
lowerneck 13.8866 6.28384 -5.37193
upperneck 13.5832 7.19225 -1.88556
head 1.93079 2.96779 0.0924064
rclavicle 4.77083e-015 -8.34896e-014
rhumerus -22.9728 -20.5765 -82.4603
rradius 13.1233
rwrist 49.7757
rhand -10.8977 -348.039
rfingers 7.12502
rthumb 15.119 -377.466
lclavicle 4.77083e-015 -8.34896e-014
lhumerus -384.931 0.70443 -278.719
lradius 32.3707
lwrist -26.3191
lhand -8.06455 353.29
lfingers 7.12502
lthumb 17.8467 382.491
rfemur 166.759 -174.526 193.146
rtibia 71.2554
rfoot 24.8231 3.82877
rtoes 4.21809
lfemur -16.3111 -4.14667 -7.93227
ltibia 72.9554
lfoot 23.8574 2.64243
ltoes 5.55199
